Land_normalized_pl13_filtered_grf
version=1
nRows=30
nColumns=37
inDegrees=yes
endheader
time		1_ground_force_vx		1_ground_force_vy		1_ground_force_vz		1_ground_force_px		1_ground_force_py		1_ground_force_pz		1_ground_torque_x		1_ground_torque_y		1_ground_torque_z		2_ground_force_vx		2_ground_force_vy		2_ground_force_vz		2_ground_force_px		2_ground_force_py		2_ground_force_pz		2_ground_torque_x		2_ground_torque_y		2_ground_torque_z		3_ground_force_vx		3_ground_force_vy		3_ground_force_vz		3_ground_force_px		3_ground_force_py		3_ground_force_pz		3_ground_torque_x		3_ground_torque_y		3_ground_torque_z		4_ground_force_vx		4_ground_force_vy		4_ground_force_vz		4_ground_force_px		4_ground_force_py		4_ground_force_pz		4_ground_torque_x		4_ground_torque_y		4_ground_torque_z		
1.697833		-28.462329		808.628474		254.190184		0.140214		0.000000		0.204400		-0.744268		21.145574		6.647054		83.317058		1032.818403		245.108747		-0.111042		0.000000		0.220706		-0.796537		-9.874491		-2.343438		21.467413		2.291664		0.897027		0.376032		1.310740		1.913868		-0.098380		-0.010502		-0.004111		-17.489320		-0.365989		1.869605		-0.264963		1.309962		1.925180		0.018698		0.000391		-0.001999		
1.700813		-30.961374		781.410629		245.923345		0.140025		0.000000		0.202844		-0.778603		19.651184		6.184562		86.510688		1006.842951		235.953193		-0.111343		0.000000		0.220370		-0.777159		-9.044984		-2.119693		21.338608		2.327587		0.737993		0.376031		1.310715		1.913872		-0.095596		-0.010428		-0.003306		-17.445322		-0.360277		1.889212		-0.264959		1.309960		1.925179		0.012769		0.000263		-0.001383		
1.703793		-33.909940		755.782281		238.600220		0.140115		0.000000		0.201853		-0.822622		18.335067		5.788369		88.607797		979.925814		228.066664		-0.111529		0.000000		0.219938		-0.779160		-8.616874		-2.005481		21.193074		2.302201		0.609855		0.376030		1.310714		1.913881		-0.093034		-0.010106		-0.002677		-17.423852		-0.380583		1.831027		-0.264959		1.309959		1.925173		0.006968		0.000152		-0.000732		
1.706773		-36.978026		731.894648		232.265403		0.140406		0.000000		0.201286		-0.868265		17.185731		5.453852		91.069649		952.997405		221.821197		-0.111815		0.000000		0.219452		-0.782816		-8.191910		-1.906760		21.057737		2.230375		0.537284		0.376034		1.310736		1.913892		-0.090856		-0.009623		-0.002318		-17.416103		-0.430065		1.695803		-0.264960		1.309959		1.925162		0.002407		0.000059		-0.000235		
1.709753		-39.953849		709.498148		226.652173		0.140768		0.000000		0.200751		-0.908177		16.127760		5.152073		94.722782		926.591395		217.558730		-0.112336		0.000000		0.218919		-0.760492		-7.439626		-1.746768		20.954637		2.124631		0.520466		0.376042		1.310776		1.913899		-0.089292		-0.009053		-0.002218		-17.417621		-0.501515		1.525890		-0.264962		1.309961		1.925150		-0.000090		-0.000003		0.000008		
1.712732		-42.757615		688.352318		221.185302		0.141105		0.000000		0.199927		-0.938114		15.103017		4.852982		99.346054		900.934981		215.299446		-0.113069		0.000000		0.218321		-0.696252		-6.314645		-1.508994		20.899114		1.989402		0.542617		0.376057		1.310826		1.913900		-0.088639		-0.008438		-0.002301		-17.433451		-0.581609		1.389599		-0.264965		1.309964		1.925140		-0.000174		-0.000006		0.000014		
1.715712		-45.386702		668.532100		215.259121		0.141413		0.000000		0.198821		-0.957923		14.110232		4.543322		103.900805		876.160445		214.550801		-0.113858		0.000000		0.217641		-0.600894		-5.067616		-1.240892		20.898741		1.826932		0.578897		0.376070		1.310874		1.913894		-0.089144		-0.007792		-0.002469		-17.475297		-0.658183		1.347808		-0.264971		1.309968		1.925132		0.001999		0.000075		-0.000154		
1.718692		-47.822130		650.452212		208.625981		0.141760		0.000000		0.197736		-0.969371		13.185152		4.229012		107.148150		852.489677		214.407731		-0.114499		0.000000		0.216888		-0.510881		-4.064865		-1.022316		20.954326		1.647012		0.603784		0.376075		1.310918		1.913886		-0.090780		-0.007135		-0.002616		-17.551224		-0.726459		1.421733		-0.264981		1.309972		1.925126		0.005767		0.000239		-0.000468		
1.721672		-49.969598		634.686767		201.525970		0.142210		0.000000		0.197011		-0.973838		12.369352		3.927533		108.308986		830.301366		213.919171		-0.114850		0.000000		0.216124		-0.464385		-3.560015		-0.917200		21.061549		1.473914		0.600121		0.376065		1.310954		1.913879		-0.093109		-0.006516		-0.002653		-17.655407		-0.789156		1.580286		-0.264994		1.309974		1.925123		0.010022		0.000448		-0.000897		
1.724652		-51.683826		621.751204		194.458868		0.142780		0.000000		0.196816		-0.972698		11.701557		3.659790		107.447639		810.074619		212.486704		-0.114914		0.000000		0.215447		-0.472533		-3.562530		-0.934476		21.211141		1.344562		0.567110		0.376035		1.310986		1.913878		-0.095467		-0.006051		-0.002553		-17.766501		-0.849316		1.756809		-0.265012		1.309973		1.925120		0.013487		0.000644		-0.001334		
1.727631		-52.876357		611.963652		187.827987		0.143437		0.000000		0.197108		-0.968937		11.214020		3.441890		105.391748		792.257465		210.068131		-0.114842		0.000000		0.214948		-0.513045		-3.856696		-1.022613		21.388089		1.295029		0.522521		0.375990		1.311013		1.913886		-0.097281		-0.005890		-0.002376		-17.854961		-0.902005		1.883227		-0.265032		1.309969		1.925117		0.015179		0.000767		-0.001601		
1.730611		-53.594023		605.395684		181.763241		0.144126		0.000000		0.197725		-0.966691		10.919706		3.278522		103.235588		777.165394		207.092694		-0.114839		0.000000		0.214670		-0.549280		-4.135026		-1.101869		21.572037		1.343087		0.493631		0.375935		1.311039		1.913900		-0.098282		-0.006119		-0.002249		-17.894833		-0.933368		1.920444		-0.265054		1.309963		1.925113		0.014841		0.000774		-0.001592		
1.733591		-53.987257		601.895682		176.230883		0.144791		0.000000		0.198482		-0.967564		10.787225		3.158426		101.716113		764.968818		204.134316		-0.115043		0.000000		0.214601		-0.553899		-4.165663		-1.111621		21.739108		1.477646		0.502398		0.375880		1.311061		1.913916		-0.098524		-0.006697		-0.002277		-17.874848		-0.928994		1.869538		-0.265075		1.309954		1.925107		0.013036		0.000678		-0.001363		
1.736571		-54.195329		601.172201		171.212080		0.145387		0.000000		0.199232		-0.969361		10.752822		3.062373		100.846105		755.708455		201.534363		-0.115459		0.000000		0.214703		-0.521470		-3.907732		-1.042125		21.865165		1.660568		0.553358		0.375835		1.311074		1.913929		-0.098329		-0.007468		-0.002488		-17.803868		-0.885099		1.762195		-0.265095		1.309946		1.925100		0.010796		0.000537		-0.001068		
1.739551		-54.269887		602.912899		166.755411		0.145883		0.000000		0.199904		-0.968897		10.763992		2.977137		100.008577		749.285270		199.207111		-0.115946		0.000000		0.214942		-0.469656		-3.518754		-0.935507		21.929897		1.842363		0.630291		0.375805		1.311075		1.913933		-0.098217		-0.008252		-0.002823		-17.708843		-0.812794		1.639876		-0.265116		1.309939		1.925091		0.009033		0.000414		-0.000836		
1.742530		-54.193735		606.876802		162.879524		0.146268		0.000000		0.200506		-0.966294		10.820826		2.904199		98.393150		745.462648		196.741444		-0.116311		0.000000		0.215286		-0.429552		-3.254435		-0.858906		21.919956		1.984944		0.700612		0.375789		1.311060		1.913924		-0.098801		-0.008947		-0.003158		-17.625260		-0.730446		1.533620		-0.265137		1.309933		1.925079		0.008154		0.000338		-0.000709		
1.745510		-53.945337		612.906512		159.512226		0.146573		0.000000		0.201134		-0.964457		10.957798		2.851826		95.475993		743.908144		193.726307		-0.116431		0.000000		0.215723		-0.425807		-3.317713		-0.863988		21.831992		2.076815		0.727491		0.375786		1.311022		1.913900		-0.100579		-0.009568		-0.003351		-17.582714		-0.651814		1.453670		-0.265161		1.309929		1.925062		0.008066		0.000299		-0.000667		
1.748490		-53.522362		620.836250		156.534767		0.146871		0.000000		0.201940		-0.965175		11.195615		2.822810		91.290937		744.240316		190.066581		-0.116320		0.000000		0.216255		-0.458914		-3.741260		-0.955454		21.675935		2.131469		0.684760		0.375787		1.310967		1.913865		-0.103678		-0.010195		-0.003276		-17.592257		-0.581283		1.393700		-0.265188		1.309924		1.925040		0.008473		0.000280		-0.000671		
1.751470		-52.918286		630.348767		153.864050		0.147238		0.000000		0.203045		-0.966660		11.514600		2.810637		86.400591		746.036487		186.059125		-0.116120		0.000000		0.216894		-0.505795		-4.367412		-1.089212		21.474362		2.171460		0.574501		0.375786		1.310900		1.913825		-0.107682		-0.010889		-0.002880		-17.642174		-0.518329		1.343153		-0.265220		1.309920		1.925013		0.009176		0.000270		-0.000699		
1.754449		-52.110906		640.874518		151.442369		0.147696		0.000000		0.204434		-0.965708		11.876564		2.806497		81.618931		748.826940		182.197452		-0.116015		0.000000		0.217624		-0.538215		-4.938023		-1.201466		21.256371		2.208811		0.431784		0.375779		1.310826		1.913788		-0.111669		-0.011603		-0.002268		-17.703615		-0.466237		1.297594		-0.265255		1.309916		1.924985		0.010155		0.000267		-0.000744		
1.757429		-51.101507		651.623673		149.159992		0.148199		0.000000		0.205936		-0.960826		12.252051		2.804553		77.636055		752.127718		178.875022		-0.116132		0.000000		0.218414		-0.540796		-5.239179		-1.246007		21.050721		2.234759		0.311213		0.375765		1.310757		1.913757		-0.114446		-0.012150		-0.001692		-17.745028		-0.436807		1.260996		-0.265296		1.309914		1.924956		0.011498		0.000283		-0.000817		
1.760409		-49.965790		661.765433		146.833393		0.148690		0.000000		0.207329		-0.952705		12.617996		2.799693		74.719967		755.512878		176.180149		-0.116501		0.000000		0.219237		-0.515479		-5.212115		-1.215431		20.879767		2.225332		0.260357		0.375747		1.310701		1.913738		-0.114911		-0.012247		-0.001433		-17.748628		-0.444408		1.242520		-0.265342		1.309915		1.924934		0.013233		0.000331		-0.000926		
1.763389		-48.860220		670.681194		144.279685		0.149146		0.000000		0.208471		-0.942891		12.942638		2.784269		72.648861		758.677285		173.885583		-0.117067		0.000000		0.220085		-0.475694		-4.967662		-1.138573		20.755161		2.159149		0.297230		0.375724		1.310668		1.913733		-0.112478		-0.011701		-0.001611		-17.718181		-0.493420		1.252682		-0.265392		1.309919		1.924921		0.015215		0.000424		-0.001076		
1.766369		-47.977897		678.174769		141.407902		0.149608		0.000000		0.209378		-0.933035		13.188606		2.749987		70.918138		761.454186		171.609427		-0.117728		0.000000		0.220966		-0.438277		-4.705779		-1.060549		20.677876		2.035971		0.402160		0.375702		1.310662		1.913741		-0.107457		-0.010580		-0.002089		-17.676219		-0.569866		1.301476		-0.265446		1.309925		1.924918		0.017122		0.000552		-0.001260		
1.769348		-47.499650		684.552272		138.221418		0.150151		0.000000		0.210197		-0.925479		13.337756		2.693094		69.096871		763.804793		169.031297		-0.118407		0.000000		0.221894		-0.415747		-4.595701		-1.017037		20.639414		1.883913		0.529475		0.375682		1.310684		1.913760		-0.101136		-0.009232		-0.002595		-17.655291		-0.644175		1.394970		-0.265499		1.309931		1.924925		0.018558		0.000678		-0.001466		
1.772328		-47.571177		690.539918		134.755494		0.150849		0.000000		0.211104		-0.923307		13.402658		2.615467		67.120617		765.798001		166.044575		-0.119088		0.000000		0.222872		-0.410550		-4.684115		-1.015632		20.622884		1.750012		0.630640		0.375664		1.310733		1.913786		-0.095362		-0.008093		-0.002916		-17.685464		-0.684677		1.529708		-0.265550		1.309936		1.924937		0.019194		0.000743		-0.001660		
1.775308		-48.292038		697.082129		131.024863		0.151733		0.000000		0.212206		-0.929546		13.417750		2.522032		65.356871		767.578367		162.768223		-0.119831		0.000000		0.223899		-0.415155		-4.875787		-1.033926		20.608165		1.678651		0.674038		0.375650		1.310801		1.913818		-0.091778		-0.007476		-0.003002		-17.782773		-0.672771		1.689985		-0.265594		1.309937		1.924951		0.018929		0.000716		-0.001798		
1.778288		-49.694607		705.106337		127.050758		0.152784		0.000000		0.213501		-0.945549		13.416214		2.417433		64.421035		769.318402		159.413163		-0.120735		0.000000		0.224977		-0.417945		-4.991116		-1.034226		20.582868		1.689443		0.652784		0.375637		1.310879		1.913851		-0.091196		-0.007485		-0.002892		-17.943340		-0.609859		1.851324		-0.265626		1.309933		1.924962		0.017981		0.000611		-0.001855		
1.781268		-51.722002		715.305383		122.915011		0.153948		0.000000		0.214902		-0.970012		13.415118		2.305209		64.863140		771.163132		156.094029		-0.121876		0.000000		0.226104		-0.409260		-4.865756		-0.984905		20.551699		1.767573		0.581920		0.375625		1.310956		1.913884		-0.093416		-0.008034		-0.002645		-18.143998		-0.513674		1.987836		-0.265645		1.309927		1.924968		0.016847		0.000477		-0.001846		
1.784247		-54.229634		727.973384		118.775262		0.155171		0.000000		0.216315		-0.999186		13.413024		2.188469		66.897038		773.187195		152.714103		-0.123270		0.000000		0.227289		-0.383737		-4.435344		-0.876056		20.535508		1.873060		0.489931		0.375615		1.311021		1.913916		-0.097514		-0.008894		-0.002326		-18.348856		-0.408030		2.079826		-0.265649		1.309918		1.924969		0.016088		0.000358		-0.001824		
